<mxfile host="65bd71144e">
    <diagram id="ncf8_lamc4SdhEAdKHxs" name="Page-1">
        <mxGraphModel dx="943" dy="658" grid="1" gridSize="10" guides="1" tooltips="1" connect="1" arrows="1" fold="1" page="1" pageScale="1" pageWidth="827" pageHeight="1169" math="0" shadow="0">
            <root>
                <mxCell id="0"/>
                <mxCell id="1" parent="0"/>
                <mxCell id="4" value="" style="edgeStyle=none;html=1;" edge="1" parent="1" source="2" target="3">
                    <mxGeometry relative="1" as="geometry"/>
                </mxCell>
                <mxCell id="2" value="user&amp;nbsp; visits site to check for weather in their local area." style="rounded=0;whiteSpace=wrap;html=1;" vertex="1" parent="1">
                    <mxGeometry y="290" width="110" height="50" as="geometry"/>
                </mxCell>
                <mxCell id="6" value="" style="edgeStyle=none;html=1;" edge="1" parent="1" source="3" target="5">
                    <mxGeometry relative="1" as="geometry"/>
                </mxCell>
                <mxCell id="3" value="user clicks the search bar enters their local area" style="whiteSpace=wrap;html=1;rounded=0;" vertex="1" parent="1">
                    <mxGeometry x="185" y="290" width="105" height="50" as="geometry"/>
                </mxCell>
                <mxCell id="8" value="" style="edgeStyle=none;html=1;" edge="1" parent="1" source="5" target="7">
                    <mxGeometry relative="1" as="geometry"/>
                </mxCell>
                <mxCell id="5" value="App returns weather for that specific area entered.&amp;nbsp;" style="whiteSpace=wrap;html=1;rounded=0;" vertex="1" parent="1">
                    <mxGeometry x="362.5" y="285" width="117.5" height="60" as="geometry"/>
                </mxCell>
                <mxCell id="7" value="user-&amp;nbsp; leaves site after checking the weather&amp;nbsp;" style="whiteSpace=wrap;html=1;rounded=0;" vertex="1" parent="1">
                    <mxGeometry x="558.75" y="285" width="120" height="60" as="geometry"/>
                </mxCell>
                <mxCell id="9" value="User Flow chart" style="rounded=1;whiteSpace=wrap;html=1;" vertex="1" parent="1">
                    <mxGeometry x="450" y="80" width="120" height="60" as="geometry"/>
                </mxCell>
            </root>
        </mxGraphModel>
    </diagram>
    <diagram id="PeGJWE9uu8NSDY2uyeEf" name="Page-2">
        <mxGraphModel dx="729" dy="1582" grid="1" gridSize="10" guides="1" tooltips="1" connect="1" arrows="1" fold="1" page="1" pageScale="1" pageWidth="827" pageHeight="1169" math="0" shadow="0">
            <root>
                <mxCell id="iqM7KsvgEnBGK30ZzabX-0"/>
                <mxCell id="iqM7KsvgEnBGK30ZzabX-1" parent="iqM7KsvgEnBGK30ZzabX-0"/>
                <mxCell id="iqM7KsvgEnBGK30ZzabX-2" value="component tree" style="rounded=1;whiteSpace=wrap;html=1;" vertex="1" parent="iqM7KsvgEnBGK30ZzabX-1">
                    <mxGeometry x="210" y="-30" width="120" height="60" as="geometry"/>
                </mxCell>
                <mxCell id="iqM7KsvgEnBGK30ZzabX-7" style="edgeStyle=none;html=1;entryX=0.25;entryY=1;entryDx=0;entryDy=0;" edge="1" parent="iqM7KsvgEnBGK30ZzabX-1" source="iqM7KsvgEnBGK30ZzabX-3" target="iqM7KsvgEnBGK30ZzabX-5">
                    <mxGeometry relative="1" as="geometry"/>
                </mxCell>
                <mxCell id="iqM7KsvgEnBGK30ZzabX-3" value="search bar&lt;br&gt;Input field&lt;br&gt;handleChange&lt;br&gt;&lt;br&gt;" style="rounded=0;whiteSpace=wrap;html=1;" vertex="1" parent="iqM7KsvgEnBGK30ZzabX-1">
                    <mxGeometry x="70" y="160" width="120" height="50" as="geometry"/>
                </mxCell>
                <mxCell id="iqM7KsvgEnBGK30ZzabX-8" style="edgeStyle=none;html=1;" edge="1" parent="iqM7KsvgEnBGK30ZzabX-1" source="iqM7KsvgEnBGK30ZzabX-4" target="iqM7KsvgEnBGK30ZzabX-5">
                    <mxGeometry relative="1" as="geometry"/>
                </mxCell>
                <mxCell id="iqM7KsvgEnBGK30ZzabX-4" value="API" style="rounded=1;whiteSpace=wrap;html=1;" vertex="1" parent="iqM7KsvgEnBGK30ZzabX-1">
                    <mxGeometry x="380" y="170" width="110" height="50" as="geometry"/>
                </mxCell>
                <mxCell id="iqM7KsvgEnBGK30ZzabX-12" value="" style="edgeStyle=none;html=1;" edge="1" parent="iqM7KsvgEnBGK30ZzabX-1" source="iqM7KsvgEnBGK30ZzabX-5" target="iqM7KsvgEnBGK30ZzabX-11">
                    <mxGeometry relative="1" as="geometry"/>
                </mxCell>
                <mxCell id="iqM7KsvgEnBGK30ZzabX-5" value="APP" style="rounded=1;whiteSpace=wrap;html=1;" vertex="1" parent="iqM7KsvgEnBGK30ZzabX-1">
                    <mxGeometry x="210" y="50" width="120" height="60" as="geometry"/>
                </mxCell>
                <mxCell id="iqM7KsvgEnBGK30ZzabX-11" value="weather" style="rounded=1;whiteSpace=wrap;html=1;" vertex="1" parent="iqM7KsvgEnBGK30ZzabX-1">
                    <mxGeometry x="210" y="190" width="120" height="60" as="geometry"/>
                </mxCell>
            </root>
        </mxGraphModel>
    </diagram>
</mxfile>